<svg width="48" height="48" viewBox="0 0 48 48" fill="none" xmlns="http://www.w3.org/2000/svg">
<path d="M23.9998 13.8008C27.2998 13.8008 27.7498 13.8008 29.0998 13.8008C30.2998 13.8008 30.8998 14.1008 31.3498 14.2508C31.9498 14.5508 32.3998 14.7008 32.8498 15.1508C33.2998 15.6008 33.5998 16.0508 33.7498 16.6508C33.8998 17.1008 34.0498 17.7008 34.1998 18.9008C34.1998 20.2508 34.1998 20.5508 34.1998 24.0008C34.1998 27.4508 34.1998 27.7508 34.1998 29.1008C34.1998 30.3008 33.8998 30.9008 33.7498 31.3508C33.4498 31.9508 33.2998 32.4008 32.8498 32.8508C32.3998 33.3008 31.9498 33.6008 31.3498 33.7508C30.8998 33.9008 30.2998 34.0508 29.0998 34.2008C27.7498 34.2008 27.4498 34.2008 23.9998 34.2008C20.5498 34.2008 20.2498 34.2008 18.8998 34.2008C17.6998 34.2008 17.0998 33.9008 16.6498 33.7508C16.0498 33.4508 15.5998 33.3008 15.1498 32.8508C14.6998 32.4008 14.3998 31.9508 14.2498 31.3508C14.0998 30.9008 13.9498 30.3008 13.7998 29.1008C13.7998 27.7508 13.7998 27.4508 13.7998 24.0008C13.7998 20.5508 13.7998 20.2508 13.7998 18.9008C13.7998 17.7008 14.0998 17.1008 14.2498 16.6508C14.5498 16.0508 14.6998 15.6008 15.1498 15.1508C15.5998 14.7008 16.0498 14.4008 16.6498 14.2508C17.0998 14.1008 17.6998 13.9508 18.8998 13.8008C20.2498 13.8008 20.6998 13.8008 23.9998 13.8008ZM23.9998 11.5508C20.5498 11.5508 20.2498 11.5508 18.8998 11.5508C17.5498 11.5508 16.6498 11.8508 15.8998 12.1508C15.1498 12.4508 14.3998 12.9008 13.6498 13.6508C12.8998 14.4008 12.5998 15.0008 12.1498 15.9008C11.8498 16.6508 11.6998 17.5508 11.5498 18.9008C11.5498 20.2508 11.5498 20.7008 11.5498 24.0008C11.5498 27.4508 11.5498 27.7508 11.5498 29.1008C11.5498 30.4508 11.8498 31.3508 12.1498 32.1008C12.4498 32.8508 12.8998 33.6008 13.6498 34.3508C14.3998 35.1008 14.9998 35.4008 15.8998 35.8508C16.6498 36.1508 17.5498 36.3008 18.8998 36.4508C20.2498 36.4508 20.6998 36.4508 23.9998 36.4508C27.2998 36.4508 27.7498 36.4508 29.0998 36.4508C30.4498 36.4508 31.3498 36.1508 32.0998 35.8508C32.8498 35.5508 33.5998 35.1008 34.3498 34.3508C35.0998 33.6008 35.3998 33.0008 35.8498 32.1008C36.1498 31.3508 36.2998 30.4508 36.4498 29.1008C36.4498 27.7508 36.4498 27.3008 36.4498 24.0008C36.4498 20.7008 36.4498 20.2508 36.4498 18.9008C36.4498 17.5508 36.1498 16.6508 35.8498 15.9008C35.5498 15.1508 35.0998 14.4008 34.3498 13.6508C33.5998 12.9008 32.9998 12.6008 32.0998 12.1508C31.3498 11.8508 30.4498 11.7008 29.0998 11.5508C27.7498 11.5508 27.4498 11.5508 23.9998 11.5508Z" fill="white"/>
<path d="M23.9998 17.5508C20.3998 17.5508 17.5498 20.4008 17.5498 24.0008C17.5498 27.6008 20.3998 30.4508 23.9998 30.4508C27.5998 30.4508 30.4498 27.6008 30.4498 24.0008C30.4498 20.4008 27.5998 17.5508 23.9998 17.5508ZM23.9998 28.2008C21.7498 28.2008 19.7998 26.4008 19.7998 24.0008C19.7998 21.7508 21.5998 19.8008 23.9998 19.8008C26.2498 19.8008 28.1998 21.6008 28.1998 24.0008C28.1998 26.2508 26.2498 28.2008 23.9998 28.2008Z" fill="white"/>
<path d="M30.5998 18.9008C31.4282 18.9008 32.0998 18.2292 32.0998 17.4008C32.0998 16.5724 31.4282 15.9008 30.5998 15.9008C29.7714 15.9008 29.0998 16.5724 29.0998 17.4008C29.0998 18.2292 29.7714 18.9008 30.5998 18.9008Z" fill="white"/>
</svg>
