<svg width="25" height="29" viewBox="0 0 25 29" fill="none" xmlns="http://www.w3.org/2000/svg">
<path d="M22.6059 22.3574V21.2455C22.6059 18.9766 20.7716 17.1323 18.515 17.1323H18.2511C15.9945 17.1323 14.1601 18.9766 14.1601 21.2455V24.1646C14.1601 25.4091 13.1546 26.4202 11.9167 26.4202H11.6528C10.415 26.4202 9.40938 25.4091 9.40938 24.1646V18.6953H10.1748V17.8674C14.7857 17.4375 15.7332 11.7692 16.4273 7.60557C16.4827 7.27651 16.5355 6.95541 16.5883 6.64493C16.9129 4.77143 16.6728 3.32252 15.8731 2.3327C14.9942 1.24734 13.8012 1.17569 13.6666 1.17039H12.2414C12.0065 0.92094 11.6739 0.761719 11.3018 0.761719C10.5839 0.761719 10.0032 1.34553 10.0032 2.06733C10.0032 2.78913 10.5839 3.37294 11.3018 3.37294C11.6396 3.37294 11.9458 3.24026 12.1754 3.02796H13.6112C13.6639 3.03327 14.1074 3.09431 14.4399 3.50297C14.8807 4.04698 14.9942 5.02353 14.7698 6.32384C14.7144 6.63963 14.6616 6.96603 14.6062 7.29774C13.8302 11.9629 12.9988 15.5852 10.1774 15.9965V15.2455H6.71201V16.0151C3.7639 15.7205 2.91668 12.0505 2.12489 7.30039C2.06947 6.96868 2.01668 6.64228 1.96125 6.32649C1.73955 5.04476 1.84776 4.07617 2.27269 3.52951C2.60788 3.09696 3.06976 3.03593 3.11991 3.03062H4.55306C4.78531 3.24291 5.08883 3.3756 5.42667 3.3756C6.14456 3.3756 6.72521 2.79179 6.72521 2.06998C6.72521 1.34818 6.14456 0.764372 5.42667 0.764372C5.05716 0.761719 4.72461 0.92094 4.48707 1.17039H3.09088H3.05921C2.92724 1.17569 1.73163 1.24469 0.852744 2.3327C0.0556726 3.31987 -0.184505 4.77143 0.14013 6.64228C0.192917 6.95542 0.248342 7.27651 0.303768 7.60557C1.00318 11.817 1.96389 17.5622 6.71201 17.8806V18.698H7.56451V24.1672C7.56451 26.4361 9.39883 28.2804 11.6554 28.2804H11.9194C14.176 28.2804 16.0103 26.4361 16.0103 24.1672V21.2482C16.0103 20.0036 17.0159 18.9925 18.2537 18.9925H18.5176C19.7555 18.9925 20.7611 20.0036 20.7611 21.2482V22.3786C19.5734 22.7767 18.7156 23.9018 18.7156 25.2313C18.7156 26.8925 20.0537 28.238 21.7059 28.238C23.3581 28.238 24.6963 26.8925 24.6963 25.2313C24.6963 23.8806 23.8174 22.7422 22.6059 22.3574ZM21.7059 26.2212C21.1596 26.2212 20.7162 25.7753 20.7162 25.226C20.7162 24.8996 20.8745 24.6104 21.1174 24.4299H22.2945C22.5373 24.6104 22.6957 24.8996 22.6957 25.226C22.6957 25.7753 22.2523 26.2212 21.7059 26.2212Z" fill="white"/>
</svg>
