<?xml version="1.0" encoding="utf-8"?>
<!-- Generator: Adobe Illustrator 23.1.0, SVG Export Plug-In . SVG Version: 6.00 Build 0)  -->
<svg version="1.1" id="Capa_1" xmlns="http://www.w3.org/2000/svg" xmlns:xlink="http://www.w3.org/1999/xlink" x="0px" y="0px"
	 viewBox="0 0 512 512" style="enable-background:new 0 0 512 512;" xml:space="preserve">
<style type="text/css">
	.st0{fill:#FFFFFF;}
</style>
<g>
	<g>
		<path class="st0" d="M241,300c-50.9,0-93.4-41.6-103-96.6c31.7,14.1,67.1,21.6,103,21.6s71.3-7.5,103-21.6
			C334.4,258.4,291.9,300,241,300z M345.7,163.1c-0.9,4.3-3.4,8-7,9.8C309.1,187.3,275.3,195,241,195s-68.1-7.7-97.6-22.2
			c-4.9-2.4-7.4-8-7.4-13v-39.2C244.9,151.7,238,150,241,150s-3.9,1.7,105-29.4C346,163.7,346.1,160.9,345.7,163.1z M241,119.4
			L85.6,75L241,30.6L396.4,75L241,119.4z M198.8,342.9l8.8-17.5c10.7,3,21.9,4.6,33.4,4.6s22.7-1.6,33.4-4.6l9.3,18.6v0.1l2.5,3.9
			l0,0c25.7,4.5,49.5,12.9,70.3,24.3c18.8,8.6,35.3,21.5,48.3,37.3C427.6,434.5,441,465,441,498c0,4.7-0.3,9.4-0.8,14H451
			c8.3,0,15-6.7,15-15c0-44.1-17.1-85.9-48.2-117.6c-29-29.6-66.9-46.8-107.4-49.1l-8.3-16.6C345.9,288.9,376,238.3,376,180v-68
			l60-17.1v146.6h30c0-167.7,0.5-157-1.1-160.9c3.4-8.3-1.3-17.6-9.8-20l-210-60c-2.7-0.8-5.5-0.8-8.2,0l-210,60
			C20.4,62.4,16,68.3,16,75s4.4,12.6,10.9,14.4L106,112v1.9c0,5.1,0,6.7,0,6.7V180c0,58.3,30.1,108.9,73.9,133.7l-8.3,16.5
			c-40.5,2.3-78.3,19.6-107.4,49.2C33.1,411.1,16,452.9,16,497c0,8.3,6.7,15,15,15h12c-0.5-4.6-0.8-9.3-0.8-14
			c0-27.3,9.2-52.9,25.3-75.2c15.3-24,37.8-42.9,64.4-53.4c19.4-9.9,41.1-17.2,64.4-21.4L198.8,342.9z"/>
	</g>
</g>
<path d="M286.1,347.9l-2.5-3.9C284.7,345.1,285.5,346.5,286.1,347.9z"/>
</svg>
