<svg width="18" height="18" viewBox="0 0 18 18" fill="none" xmlns="http://www.w3.org/2000/svg">
<path d="M8.08255 2.49073C8.4307 1.68785 9.5693 1.68785 9.91745 2.49073L11.1073 5.23462C11.2522 5.56878 11.5673 5.79772 11.9299 5.83227L14.9072 6.11597C15.7783 6.19899 16.1302 7.28186 15.4742 7.86108L13.2323 9.8406C12.9593 10.0817 12.8389 10.4521 12.9181 10.8076L13.5683 13.7268C13.7585 14.581 12.8374 15.2503 12.0838 14.8054L9.50839 13.2849C9.19475 13.0997 8.80525 13.0997 8.49161 13.2849L5.91618 14.8054C5.1626 15.2503 4.24146 14.581 4.43171 13.7268L5.08192 10.8076C5.16111 10.4521 5.04074 10.0817 4.76772 9.8406L2.52581 7.86108C1.86981 7.28186 2.22166 6.19899 3.09283 6.11597L6.0701 5.83227C6.43268 5.79772 6.7478 5.56878 6.8927 5.23462L8.08255 2.49073Z" stroke="#CA1216"/>
</svg>
